<svg width="920" height="320" viewBox="0 0 920 320" fill="none" xmlns="http://www.w3.org/2000/svg">
<rect width="920" height="320" rx="24" fill="#212529"/>
<mask id="path-2-outside-1_4_59" maskUnits="userSpaceOnUse" x="292" y="105" width="549" height="120" fill="black">
<rect fill="white" x="292" y="105" width="549" height="120"/>
<path d="M328.2 223.05C321.4 223.05 315.4 221.8 310.2 219.3C305 216.7 300.95 212.8 298.05 207.6C295.15 202.3 293.7 195.65 293.7 187.65V141.9H312.45V185.1C312.45 192.3 314.05 197.7 317.25 201.3C320.55 204.8 325.2 206.55 331.2 206.55C335.6 206.55 339.4 205.65 342.6 203.85C345.9 202.05 348.45 199.35 350.25 195.75C352.15 192.15 353.1 187.7 353.1 182.4V141.9H371.85V222H354V200.4L357.15 207C354.45 212.2 350.5 216.2 345.3 219C340.1 221.7 334.4 223.05 328.2 223.05ZM396.4 222V141.9H415.15V222H396.4ZM405.85 128.7C402.35 128.7 399.45 127.6 397.15 125.4C394.95 123.2 393.85 120.55 393.85 117.45C393.85 114.25 394.95 111.6 397.15 109.5C399.45 107.3 402.35 106.2 405.85 106.2C409.35 106.2 412.2 107.25 414.4 109.35C416.7 111.35 417.85 113.9 417.85 117C417.85 120.3 416.75 123.1 414.55 125.4C412.35 127.6 409.45 128.7 405.85 128.7ZM433.159 222V210.15L482.509 150.45L485.959 156.9H434.059V141.9H500.959V153.75L451.609 213.45L447.859 207H502.309V222H433.159ZM512.993 222V210.15L562.343 150.45L565.793 156.9H513.893V141.9H580.793V153.75L531.443 213.45L527.693 207H582.143V222H512.993ZM599.427 222V141.9H618.177V222H599.427ZM608.877 128.7C605.377 128.7 602.477 127.6 600.177 125.4C597.977 123.2 596.877 120.55 596.877 117.45C596.877 114.25 597.977 111.6 600.177 109.5C602.477 107.3 605.377 106.2 608.877 106.2C612.377 106.2 615.227 107.25 617.427 109.35C619.727 111.35 620.877 113.9 620.877 117C620.877 120.3 619.777 123.1 617.577 125.4C615.377 127.6 612.477 128.7 608.877 128.7ZM679.536 223.05C671.136 223.05 663.636 221.3 657.036 217.8C650.536 214.2 645.436 209.3 641.736 203.1C638.036 196.9 636.186 189.85 636.186 181.95C636.186 173.95 638.036 166.9 641.736 160.8C645.436 154.6 650.536 149.75 657.036 146.25C663.636 142.75 671.136 141 679.536 141C687.336 141 694.186 142.6 700.086 145.8C706.086 148.9 710.636 153.5 713.736 159.6L699.336 168C696.936 164.2 693.986 161.4 690.486 159.6C687.086 157.8 683.386 156.9 679.386 156.9C674.786 156.9 670.636 157.9 666.936 159.9C663.236 161.9 660.336 164.8 658.236 168.6C656.136 172.3 655.086 176.75 655.086 181.95C655.086 187.15 656.136 191.65 658.236 195.45C660.336 199.15 663.236 202 666.936 204C670.636 206 674.786 207 679.386 207C683.386 207 687.086 206.1 690.486 204.3C693.986 202.5 696.936 199.7 699.336 195.9L713.736 204.3C710.636 210.3 706.086 214.95 700.086 218.25C694.186 221.45 687.336 223.05 679.536 223.05ZM779.295 222V205.8L778.245 202.35V174C778.245 168.5 776.595 164.25 773.295 161.25C769.995 158.15 764.995 156.6 758.295 156.6C753.795 156.6 749.345 157.3 744.945 158.7C740.645 160.1 736.995 162.05 733.995 164.55L726.645 150.9C730.945 147.6 736.045 145.15 741.945 143.55C747.945 141.85 754.145 141 760.545 141C772.145 141 781.095 143.8 787.395 149.4C793.795 154.9 796.995 163.45 796.995 175.05V222H779.295ZM754.095 223.05C748.095 223.05 742.845 222.05 738.345 220.05C733.845 217.95 730.345 215.1 727.845 211.5C725.445 207.8 724.245 203.65 724.245 199.05C724.245 194.55 725.295 190.5 727.395 186.9C729.595 183.3 733.145 180.45 738.045 178.35C742.945 176.25 749.445 175.2 757.545 175.2H780.795V187.65H758.895C752.495 187.65 748.195 188.7 745.995 190.8C743.795 192.8 742.695 195.3 742.695 198.3C742.695 201.7 744.045 204.4 746.745 206.4C749.445 208.4 753.195 209.4 757.995 209.4C762.595 209.4 766.695 208.35 770.295 206.25C773.995 204.15 776.645 201.05 778.245 196.95L781.395 208.2C779.595 212.9 776.345 216.55 771.645 219.15C767.045 221.75 761.195 223.05 754.095 223.05ZM821.058 222V110.7H839.808V222H821.058Z"/>
</mask>
<path d="M328.2 223.05C321.4 223.05 315.4 221.8 310.2 219.3C305 216.7 300.95 212.8 298.05 207.6C295.15 202.3 293.7 195.65 293.7 187.65V141.9H312.45V185.1C312.45 192.3 314.05 197.7 317.25 201.3C320.55 204.8 325.2 206.55 331.2 206.55C335.6 206.55 339.4 205.65 342.6 203.85C345.9 202.05 348.45 199.35 350.25 195.75C352.15 192.15 353.1 187.7 353.1 182.4V141.9H371.85V222H354V200.4L357.15 207C354.45 212.2 350.5 216.2 345.3 219C340.1 221.7 334.4 223.05 328.2 223.05ZM396.4 222V141.9H415.15V222H396.4ZM405.85 128.7C402.35 128.7 399.45 127.6 397.15 125.4C394.95 123.2 393.85 120.55 393.85 117.45C393.85 114.25 394.95 111.6 397.15 109.5C399.45 107.3 402.35 106.2 405.85 106.2C409.35 106.2 412.2 107.25 414.4 109.35C416.7 111.35 417.85 113.9 417.85 117C417.85 120.3 416.75 123.1 414.55 125.4C412.35 127.6 409.45 128.7 405.85 128.7ZM433.159 222V210.15L482.509 150.45L485.959 156.9H434.059V141.9H500.959V153.75L451.609 213.45L447.859 207H502.309V222H433.159ZM512.993 222V210.15L562.343 150.45L565.793 156.9H513.893V141.9H580.793V153.75L531.443 213.45L527.693 207H582.143V222H512.993ZM599.427 222V141.9H618.177V222H599.427ZM608.877 128.7C605.377 128.7 602.477 127.6 600.177 125.4C597.977 123.2 596.877 120.55 596.877 117.45C596.877 114.25 597.977 111.6 600.177 109.5C602.477 107.3 605.377 106.2 608.877 106.2C612.377 106.2 615.227 107.25 617.427 109.35C619.727 111.35 620.877 113.9 620.877 117C620.877 120.3 619.777 123.1 617.577 125.4C615.377 127.6 612.477 128.7 608.877 128.7ZM679.536 223.05C671.136 223.05 663.636 221.3 657.036 217.8C650.536 214.2 645.436 209.3 641.736 203.1C638.036 196.9 636.186 189.85 636.186 181.95C636.186 173.95 638.036 166.9 641.736 160.8C645.436 154.6 650.536 149.75 657.036 146.25C663.636 142.75 671.136 141 679.536 141C687.336 141 694.186 142.6 700.086 145.8C706.086 148.9 710.636 153.5 713.736 159.6L699.336 168C696.936 164.2 693.986 161.4 690.486 159.6C687.086 157.8 683.386 156.9 679.386 156.9C674.786 156.9 670.636 157.9 666.936 159.9C663.236 161.9 660.336 164.8 658.236 168.6C656.136 172.3 655.086 176.75 655.086 181.95C655.086 187.15 656.136 191.65 658.236 195.45C660.336 199.15 663.236 202 666.936 204C670.636 206 674.786 207 679.386 207C683.386 207 687.086 206.1 690.486 204.3C693.986 202.5 696.936 199.7 699.336 195.9L713.736 204.3C710.636 210.3 706.086 214.95 700.086 218.25C694.186 221.45 687.336 223.05 679.536 223.05ZM779.295 222V205.8L778.245 202.35V174C778.245 168.5 776.595 164.25 773.295 161.25C769.995 158.15 764.995 156.6 758.295 156.6C753.795 156.6 749.345 157.3 744.945 158.7C740.645 160.1 736.995 162.05 733.995 164.55L726.645 150.9C730.945 147.6 736.045 145.15 741.945 143.55C747.945 141.85 754.145 141 760.545 141C772.145 141 781.095 143.8 787.395 149.4C793.795 154.9 796.995 163.45 796.995 175.05V222H779.295ZM754.095 223.05C748.095 223.05 742.845 222.05 738.345 220.05C733.845 217.95 730.345 215.1 727.845 211.5C725.445 207.8 724.245 203.65 724.245 199.05C724.245 194.55 725.295 190.5 727.395 186.9C729.595 183.3 733.145 180.45 738.045 178.35C742.945 176.25 749.445 175.2 757.545 175.2H780.795V187.65H758.895C752.495 187.65 748.195 188.7 745.995 190.8C743.795 192.8 742.695 195.3 742.695 198.3C742.695 201.7 744.045 204.4 746.745 206.4C749.445 208.4 753.195 209.4 757.995 209.4C762.595 209.4 766.695 208.35 770.295 206.25C773.995 204.15 776.645 201.05 778.245 196.95L781.395 208.2C779.595 212.9 776.345 216.55 771.645 219.15C767.045 221.75 761.195 223.05 754.095 223.05ZM821.058 222V110.7H839.808V222H821.058Z" fill="white"/>
<path d="M310.2 219.3L309.753 220.194L309.76 220.198L309.767 220.201L310.2 219.3ZM298.05 207.6L297.173 208.08L297.177 208.087L298.05 207.6ZM293.7 141.9V140.9H292.7V141.9H293.7ZM312.45 141.9H313.45V140.9H312.45V141.9ZM317.25 201.3L316.503 201.964L316.512 201.975L316.522 201.986L317.25 201.3ZM342.6 203.85L342.121 202.972L342.11 202.978L342.6 203.85ZM350.25 195.75L349.366 195.283L349.36 195.293L349.356 195.303L350.25 195.75ZM353.1 141.9V140.9H352.1V141.9H353.1ZM371.85 141.9H372.85V140.9H371.85V141.9ZM371.85 222V223H372.85V222H371.85ZM354 222H353V223H354V222ZM354 200.4L354.902 199.969L353 200.4H354ZM357.15 207L358.038 207.461L358.267 207.019L358.052 206.569L357.15 207ZM345.3 219L345.761 219.887L345.767 219.884L345.774 219.88L345.3 219ZM328.2 223.05V222.05C321.523 222.05 315.676 220.823 310.633 218.399L310.2 219.3L309.767 220.201C315.124 222.777 321.277 224.05 328.2 224.05V223.05ZM310.2 219.3L310.647 218.406C305.632 215.898 301.728 212.142 298.923 207.113L298.05 207.6L297.177 208.087C300.172 213.458 304.368 217.502 309.753 220.194L310.2 219.3ZM298.05 207.6L298.927 207.12C296.13 202.007 294.7 195.535 294.7 187.65H293.7H292.7C292.7 195.765 294.17 202.593 297.173 208.08L298.05 207.6ZM293.7 187.65H294.7V141.9H293.7H292.7V187.65H293.7ZM293.7 141.9V142.9H312.45V141.9V140.9H293.7V141.9ZM312.45 141.9H311.45V185.1H312.45H313.45V141.9H312.45ZM312.45 185.1H311.45C311.45 192.427 313.076 198.109 316.503 201.964L317.25 201.3L317.997 200.636C315.024 197.291 313.45 192.173 313.45 185.1H312.45ZM317.25 201.3L316.522 201.986C320.056 205.734 324.997 207.55 331.2 207.55V206.55V205.55C325.403 205.55 321.044 203.866 317.978 200.614L317.25 201.3ZM331.2 206.55V207.55C335.738 207.55 339.713 206.621 343.09 204.722L342.6 203.85L342.11 202.978C339.087 204.679 335.462 205.55 331.2 205.55V206.55ZM342.6 203.85L343.079 204.728C346.571 202.823 349.26 199.966 351.144 196.197L350.25 195.75L349.356 195.303C347.64 198.734 345.229 201.277 342.121 202.972L342.6 203.85ZM350.25 195.75L351.134 196.217C353.13 192.436 354.1 187.815 354.1 182.4H353.1H352.1C352.1 187.585 351.17 191.864 349.366 195.283L350.25 195.75ZM353.1 182.4H354.1V141.9H353.1H352.1V182.4H353.1ZM353.1 141.9V142.9H371.85V141.9V140.9H353.1V141.9ZM371.85 141.9H370.85V222H371.85H372.85V141.9H371.85ZM371.85 222V221H354V222V223H371.85V222ZM354 222H355V200.4H354H353V222H354ZM354 200.4L353.098 200.831L356.248 207.431L357.15 207L358.052 206.569L354.902 199.969L354 200.4ZM357.15 207L356.263 206.539C353.656 211.559 349.851 215.414 344.826 218.12L345.3 219L345.774 219.88C351.149 216.986 355.244 212.841 358.038 207.461L357.15 207ZM345.3 219L344.839 218.113C339.79 220.734 334.249 222.05 328.2 222.05V223.05V224.05C334.551 224.05 340.41 222.666 345.761 219.887L345.3 219ZM396.4 222H395.4V223H396.4V222ZM396.4 141.9V140.9H395.4V141.9H396.4ZM415.15 141.9H416.15V140.9H415.15V141.9ZM415.15 222V223H416.15V222H415.15ZM397.15 125.4L396.443 126.107L396.45 126.115L396.458 126.123L397.15 125.4ZM397.15 109.5L397.84 110.223L397.841 110.223L397.15 109.5ZM414.4 109.35L413.709 110.073L413.726 110.089L413.743 110.105L414.4 109.35ZM414.55 125.4L415.257 126.107L415.265 126.099L415.272 126.091L414.55 125.4ZM396.4 222H397.4V141.9H396.4H395.4V222H396.4ZM396.4 141.9V142.9H415.15V141.9V140.9H396.4V141.9ZM415.15 141.9H414.15V222H415.15H416.15V141.9H415.15ZM415.15 222V221H396.4V222V223H415.15V222ZM405.85 128.7V127.7C402.579 127.7 399.935 126.681 397.841 124.677L397.15 125.4L396.458 126.123C398.964 128.519 402.12 129.7 405.85 129.7V128.7ZM397.15 125.4L397.857 124.693C395.843 122.68 394.85 120.284 394.85 117.45H393.85H392.85C392.85 120.816 394.056 123.72 396.443 126.107L397.15 125.4ZM393.85 117.45H394.85C394.85 114.507 395.849 112.124 397.84 110.223L397.15 109.5L396.459 108.777C394.05 111.076 392.85 113.993 392.85 117.45H393.85ZM397.15 109.5L397.841 110.223C399.935 108.219 402.579 107.2 405.85 107.2V106.2V105.2C402.12 105.2 398.964 106.381 396.458 108.777L397.15 109.5ZM405.85 106.2V107.2C409.134 107.2 411.723 108.178 413.709 110.073L414.4 109.35L415.09 108.627C412.676 106.322 409.565 105.2 405.85 105.2V106.2ZM414.4 109.35L413.743 110.105C415.821 111.911 416.85 114.184 416.85 117H417.85H418.85C418.85 113.616 417.578 110.789 415.056 108.595L414.4 109.35ZM417.85 117H416.85C416.85 120.053 415.842 122.602 413.827 124.709L414.55 125.4L415.272 126.091C417.657 123.598 418.85 120.547 418.85 117H417.85ZM414.55 125.4L413.843 124.693C411.86 126.676 409.229 127.7 405.85 127.7V128.7V129.7C409.67 129.7 412.84 128.524 415.257 126.107L414.55 125.4ZM433.159 222H432.159V223H433.159V222ZM433.159 210.15L432.388 209.513L432.159 209.79V210.15H433.159ZM482.509 150.45L483.391 149.978L482.688 148.664L481.738 149.813L482.509 150.45ZM485.959 156.9V157.9H487.628L486.841 156.428L485.959 156.9ZM434.059 156.9H433.059V157.9H434.059V156.9ZM434.059 141.9V140.9H433.059V141.9H434.059ZM500.959 141.9H501.959V140.9H500.959V141.9ZM500.959 153.75L501.73 154.387L501.959 154.11V153.75H500.959ZM451.609 213.45L450.744 213.953L451.466 215.193L452.38 214.087L451.609 213.45ZM447.859 207V206H446.121L446.994 207.503L447.859 207ZM502.309 207H503.309V206H502.309V207ZM502.309 222V223H503.309V222H502.309ZM433.159 222H434.159V210.15H433.159H432.159V222H433.159ZM433.159 210.15L433.93 210.787L483.28 151.087L482.509 150.45L481.738 149.813L432.388 209.513L433.159 210.15ZM482.509 150.45L481.627 150.922L485.077 157.372L485.959 156.9L486.841 156.428L483.391 149.978L482.509 150.45ZM485.959 156.9V155.9H434.059V156.9V157.9H485.959V156.9ZM434.059 156.9H435.059V141.9H434.059H433.059V156.9H434.059ZM434.059 141.9V142.9H500.959V141.9V140.9H434.059V141.9ZM500.959 141.9H499.959V153.75H500.959H501.959V141.9H500.959ZM500.959 153.75L500.188 153.113L450.838 212.813L451.609 213.45L452.38 214.087L501.73 154.387L500.959 153.75ZM451.609 213.45L452.473 212.947L448.723 206.497L447.859 207L446.994 207.503L450.744 213.953L451.609 213.45ZM447.859 207V208H502.309V207V206H447.859V207ZM502.309 207H501.309V222H502.309H503.309V207H502.309ZM502.309 222V221H433.159V222V223H502.309V222ZM512.993 222H511.993V223H512.993V222ZM512.993 210.15L512.222 209.513L511.993 209.79V210.15H512.993ZM562.343 150.45L563.225 149.978L562.522 148.664L561.572 149.813L562.343 150.45ZM565.793 156.9V157.9H567.462L566.675 156.428L565.793 156.9ZM513.893 156.9H512.893V157.9H513.893V156.9ZM513.893 141.9V140.9H512.893V141.9H513.893ZM580.793 141.9H581.793V140.9H580.793V141.9ZM580.793 153.75L581.564 154.387L581.793 154.11V153.75H580.793ZM531.443 213.45L530.578 213.953L531.3 215.193L532.214 214.087L531.443 213.45ZM527.693 207V206H525.955L526.828 207.503L527.693 207ZM582.143 207H583.143V206H582.143V207ZM582.143 222V223H583.143V222H582.143ZM512.993 222H513.993V210.15H512.993H511.993V222H512.993ZM512.993 210.15L513.764 210.787L563.114 151.087L562.343 150.45L561.572 149.813L512.222 209.513L512.993 210.15ZM562.343 150.45L561.461 150.922L564.911 157.372L565.793 156.9L566.675 156.428L563.225 149.978L562.343 150.45ZM565.793 156.9V155.9H513.893V156.9V157.9H565.793V156.9ZM513.893 156.9H514.893V141.9H513.893H512.893V156.9H513.893ZM513.893 141.9V142.9H580.793V141.9V140.9H513.893V141.9ZM580.793 141.9H579.793V153.75H580.793H581.793V141.9H580.793ZM580.793 153.75L580.022 153.113L530.672 212.813L531.443 213.45L532.214 214.087L581.564 154.387L580.793 153.75ZM531.443 213.45L532.307 212.947L528.557 206.497L527.693 207L526.828 207.503L530.578 213.953L531.443 213.45ZM527.693 207V208H582.143V207V206H527.693V207ZM582.143 207H581.143V222H582.143H583.143V207H582.143ZM582.143 222V221H512.993V222V223H582.143V222ZM599.427 222H598.427V223H599.427V222ZM599.427 141.9V140.9H598.427V141.9H599.427ZM618.177 141.9H619.177V140.9H618.177V141.9ZM618.177 222V223H619.177V222H618.177ZM600.177 125.4L599.47 126.107L599.478 126.115L599.486 126.123L600.177 125.4ZM600.177 109.5L600.867 110.223L600.868 110.223L600.177 109.5ZM617.427 109.35L616.736 110.073L616.753 110.089L616.771 110.105L617.427 109.35ZM617.577 125.4L618.284 126.107L618.292 126.099L618.3 126.091L617.577 125.4ZM599.427 222H600.427V141.9H599.427H598.427V222H599.427ZM599.427 141.9V142.9H618.177V141.9V140.9H599.427V141.9ZM618.177 141.9H617.177V222H618.177H619.177V141.9H618.177ZM618.177 222V221H599.427V222V223H618.177V222ZM608.877 128.7V127.7C605.606 127.7 602.963 126.681 600.868 124.677L600.177 125.4L599.486 126.123C601.991 128.519 605.147 129.7 608.877 129.7V128.7ZM600.177 125.4L600.884 124.693C598.871 122.68 597.877 120.284 597.877 117.45H596.877H595.877C595.877 120.816 597.083 123.72 599.47 126.107L600.177 125.4ZM596.877 117.45H597.877C597.877 114.507 598.876 112.124 600.867 110.223L600.177 109.5L599.486 108.777C597.078 111.076 595.877 113.993 595.877 117.45H596.877ZM600.177 109.5L600.868 110.223C602.963 108.219 605.606 107.2 608.877 107.2V106.2V105.2C605.147 105.2 601.991 106.381 599.486 108.777L600.177 109.5ZM608.877 106.2V107.2C612.162 107.2 614.751 108.178 616.736 110.073L617.427 109.35L618.117 108.627C615.703 106.322 612.592 105.2 608.877 105.2V106.2ZM617.427 109.35L616.771 110.105C618.848 111.911 619.877 114.184 619.877 117H620.877H621.877C621.877 113.616 620.606 110.789 618.083 108.595L617.427 109.35ZM620.877 117H619.877C619.877 120.053 618.869 122.602 616.854 124.709L617.577 125.4L618.3 126.091C620.685 123.598 621.877 120.547 621.877 117H620.877ZM617.577 125.4L616.87 124.693C614.887 126.676 612.257 127.7 608.877 127.7V128.7V129.7C612.697 129.7 615.867 128.524 618.284 126.107L617.577 125.4ZM657.036 217.8L656.552 218.675L656.56 218.679L656.568 218.683L657.036 217.8ZM641.736 203.1L640.878 203.612L640.878 203.612L641.736 203.1ZM641.736 160.8L642.591 161.319L642.595 161.312L641.736 160.8ZM657.036 146.25L656.568 145.367L656.562 145.37L657.036 146.25ZM700.086 145.8L699.61 146.679L699.618 146.684L699.627 146.688L700.086 145.8ZM713.736 159.6L714.24 160.464L715.055 159.988L714.628 159.147L713.736 159.6ZM699.336 168L698.491 168.534L699.006 169.35L699.84 168.864L699.336 168ZM690.486 159.6L690.018 160.484L690.029 160.489L690.486 159.6ZM666.936 159.9L666.461 159.02L666.461 159.02L666.936 159.9ZM658.236 168.6L659.106 169.094L659.112 169.084L658.236 168.6ZM658.236 195.45L657.361 195.934L657.367 195.944L658.236 195.45ZM666.936 204L667.412 203.12L667.412 203.12L666.936 204ZM690.486 204.3L690.029 203.411L690.018 203.416L690.486 204.3ZM699.336 195.9L699.84 195.036L699.006 194.55L698.491 195.366L699.336 195.9ZM713.736 204.3L714.625 204.759L715.061 203.915L714.24 203.436L713.736 204.3ZM700.086 218.25L700.563 219.129L700.568 219.126L700.086 218.25ZM679.536 223.05V222.05C671.279 222.05 663.943 220.331 657.505 216.917L657.036 217.8L656.568 218.683C663.329 222.269 670.994 224.05 679.536 224.05V223.05ZM657.036 217.8L657.521 216.925C651.171 213.408 646.202 208.631 642.595 202.588L641.736 203.1L640.878 203.612C644.671 209.969 649.902 214.992 656.552 218.675L657.036 217.8ZM641.736 203.1L642.595 202.588C638.996 196.557 637.186 189.687 637.186 181.95H636.186H635.186C635.186 190.013 637.077 197.243 640.878 203.612L641.736 203.1ZM636.186 181.95H637.186C637.186 174.11 638.997 167.244 642.591 161.319L641.736 160.8L640.881 160.281C637.075 166.556 635.186 173.79 635.186 181.95H636.186ZM641.736 160.8L642.595 161.312C646.2 155.271 651.166 150.547 657.51 147.13L657.036 146.25L656.562 145.37C649.907 148.953 644.672 153.929 640.878 160.288L641.736 160.8ZM657.036 146.25L657.505 147.133C663.943 143.719 671.279 142 679.536 142V141V140C670.994 140 663.329 141.781 656.568 145.367L657.036 146.25ZM679.536 141V142C687.197 142 693.878 143.57 699.61 146.679L700.086 145.8L700.563 144.921C694.495 141.63 687.476 140 679.536 140V141ZM700.086 145.8L699.627 146.688C705.438 149.691 709.838 154.137 712.845 160.053L713.736 159.6L714.628 159.147C711.434 152.863 706.734 148.109 700.545 144.912L700.086 145.8ZM713.736 159.6L713.232 158.736L698.832 167.136L699.336 168L699.84 168.864L714.24 160.464L713.736 159.6ZM699.336 168L700.182 167.466C697.7 163.537 694.624 160.603 690.944 158.711L690.486 159.6L690.029 160.489C693.349 162.197 696.172 164.863 698.491 168.534L699.336 168ZM690.486 159.6L690.954 158.716C687.404 156.837 683.543 155.9 679.386 155.9V156.9V157.9C683.23 157.9 686.768 158.763 690.018 160.484L690.486 159.6ZM679.386 156.9V155.9C674.636 155.9 670.32 156.934 666.461 159.02L666.936 159.9L667.412 160.78C670.952 158.866 674.936 157.9 679.386 157.9V156.9ZM666.936 159.9L666.461 159.02C662.587 161.114 659.551 164.154 657.361 168.116L658.236 168.6L659.112 169.084C661.122 165.446 663.886 162.686 667.412 160.78L666.936 159.9ZM658.236 168.6L657.367 168.106C655.164 171.987 654.086 176.615 654.086 181.95H655.086H656.086C656.086 176.885 657.108 172.613 659.106 169.094L658.236 168.6ZM655.086 181.95H654.086C654.086 187.286 655.164 191.959 657.361 195.934L658.236 195.45L659.112 194.966C657.108 191.341 656.086 187.014 656.086 181.95H655.086ZM658.236 195.45L657.367 195.944C659.558 199.805 662.594 202.789 666.461 204.88L666.936 204L667.412 203.12C663.879 201.211 661.115 198.495 659.106 194.956L658.236 195.45ZM666.936 204L666.461 204.88C670.32 206.966 674.636 208 679.386 208V207V206C674.936 206 670.952 205.034 667.412 203.12L666.936 204ZM679.386 207V208C683.543 208 687.404 207.063 690.954 205.184L690.486 204.3L690.018 203.416C686.768 205.137 683.23 206 679.386 206V207ZM690.486 204.3L690.944 205.189C694.624 203.297 697.7 200.363 700.182 196.434L699.336 195.9L698.491 195.366C696.172 199.037 693.349 201.703 690.029 203.411L690.486 204.3ZM699.336 195.9L698.832 196.764L713.232 205.164L713.736 204.3L714.24 203.436L699.84 195.036L699.336 195.9ZM713.736 204.3L712.848 203.841C709.84 209.662 705.433 214.168 699.604 217.374L700.086 218.25L700.568 219.126C706.74 215.732 711.432 210.938 714.625 204.759L713.736 204.3ZM700.086 218.25L699.61 217.371C693.878 220.48 687.197 222.05 679.536 222.05V223.05V224.05C687.476 224.05 694.495 222.42 700.563 219.129L700.086 218.25ZM779.295 222H778.295V223H779.295V222ZM779.295 205.8H780.295V205.651L780.251 205.509L779.295 205.8ZM778.245 202.35H777.245V202.499L777.288 202.641L778.245 202.35ZM773.295 161.25L772.61 161.979L772.616 161.984L772.622 161.99L773.295 161.25ZM744.945 158.7L744.641 157.747L744.635 157.749L744.945 158.7ZM733.995 164.55L733.114 165.024L733.694 166.102L734.635 165.318L733.995 164.55ZM726.645 150.9L726.036 150.107L725.361 150.625L725.764 151.374L726.645 150.9ZM741.945 143.55L742.206 144.515L742.217 144.512L741.945 143.55ZM787.395 149.4L786.73 150.147L786.736 150.153L786.743 150.158L787.395 149.4ZM796.995 222V223H797.995V222H796.995ZM738.345 220.05L737.922 220.956L737.93 220.96L737.938 220.964L738.345 220.05ZM727.845 211.5L727.006 212.044L727.014 212.057L727.023 212.07L727.845 211.5ZM727.395 186.9L726.541 186.379L726.536 186.387L726.531 186.396L727.395 186.9ZM738.045 178.35L738.438 179.269L738.438 179.269L738.045 178.35ZM780.795 175.2H781.795V174.2H780.795V175.2ZM780.795 187.65V188.65H781.795V187.65H780.795ZM745.995 190.8L746.667 191.54L746.676 191.532L746.685 191.523L745.995 190.8ZM746.745 206.4L746.149 207.204L746.149 207.204L746.745 206.4ZM770.295 206.25L769.801 205.38L769.791 205.386L770.295 206.25ZM778.245 196.95L779.207 196.68L778.401 193.799L777.313 196.586L778.245 196.95ZM781.395 208.2L782.328 208.558L782.447 208.249L782.357 207.93L781.395 208.2ZM771.645 219.15L771.16 218.275L771.152 218.279L771.645 219.15ZM779.295 222H780.295V205.8H779.295H778.295V222H779.295ZM779.295 205.8L780.251 205.509L779.201 202.059L778.245 202.35L777.288 202.641L778.338 206.091L779.295 205.8ZM778.245 202.35H779.245V174H778.245H777.245V202.35H778.245ZM778.245 174H779.245C779.245 168.289 777.523 163.742 773.967 160.51L773.295 161.25L772.622 161.99C775.666 164.758 777.245 168.711 777.245 174H778.245ZM773.295 161.25L773.979 160.521C770.422 157.179 765.129 155.6 758.295 155.6V156.6V157.6C764.86 157.6 769.567 159.121 772.61 161.979L773.295 161.25ZM758.295 156.6V155.6C753.689 155.6 749.137 156.317 744.641 157.747L744.945 158.7L745.248 159.653C749.552 158.283 753.9 157.6 758.295 157.6V156.6ZM744.945 158.7L744.635 157.749C740.233 159.182 736.466 161.189 733.354 163.782L733.995 164.55L734.635 165.318C737.523 162.911 741.056 161.018 745.254 159.651L744.945 158.7ZM733.995 164.55L734.875 164.076L727.525 150.426L726.645 150.9L725.764 151.374L733.114 165.024L733.995 164.55ZM726.645 150.9L727.253 151.693C731.438 148.482 736.416 146.085 742.206 144.515L741.945 143.55L741.683 142.585C735.673 144.215 730.452 146.718 726.036 150.107L726.645 150.9ZM741.945 143.55L742.217 144.512C748.126 142.838 754.234 142 760.545 142V141V140C754.055 140 747.763 140.862 741.672 142.588L741.945 143.55ZM760.545 141V142C771.992 142 780.672 144.763 786.73 150.147L787.395 149.4L788.059 148.653C781.517 142.837 772.297 140 760.545 140V141ZM787.395 149.4L786.743 150.158C792.848 155.405 795.995 163.627 795.995 175.05H796.995H797.995C797.995 163.273 794.741 154.395 788.046 148.642L787.395 149.4ZM796.995 175.05H795.995V222H796.995H797.995V175.05H796.995ZM796.995 222V221H779.295V222V223H796.995V222ZM754.095 223.05V222.05C748.205 222.05 743.098 221.068 738.751 219.136L738.345 220.05L737.938 220.964C742.591 223.032 747.984 224.05 754.095 224.05V223.05ZM738.345 220.05L738.767 219.144C734.406 217.108 731.052 214.366 728.666 210.93L727.845 211.5L727.023 212.07C729.637 215.834 733.283 218.792 737.922 220.956L738.345 220.05ZM727.845 211.5L728.683 210.956C726.393 207.425 725.245 203.466 725.245 199.05H724.245H723.245C723.245 203.834 724.496 208.175 727.006 212.044L727.845 211.5ZM724.245 199.05H725.245C725.245 194.712 726.255 190.839 728.258 187.404L727.395 186.9L726.531 186.396C724.334 190.161 723.245 194.388 723.245 199.05H724.245ZM727.395 186.9L728.248 187.421C730.314 184.04 733.679 181.309 738.438 179.269L738.045 178.35L737.651 177.431C732.61 179.591 728.875 182.56 726.541 186.379L727.395 186.9ZM738.045 178.35L738.438 179.269C743.167 177.243 749.516 176.2 757.545 176.2V175.2V174.2C749.373 174.2 742.723 175.257 737.651 177.431L738.045 178.35ZM757.545 175.2V176.2H780.795V175.2V174.2H757.545V175.2ZM780.795 175.2H779.795V187.65H780.795H781.795V175.2H780.795ZM780.795 187.65V186.65H758.895V187.65V188.65H780.795V187.65ZM758.895 187.65V186.65C755.647 186.65 752.886 186.916 750.632 187.466C748.385 188.015 746.576 188.863 745.304 190.077L745.995 190.8L746.685 191.523C747.613 190.637 749.054 189.91 751.107 189.409C753.153 188.909 755.742 188.65 758.895 188.65V187.65ZM745.995 190.8L745.322 190.06C742.911 192.252 741.695 195.021 741.695 198.3H742.695H743.695C743.695 195.579 744.678 193.348 746.667 191.54L745.995 190.8ZM742.695 198.3H741.695C741.695 202.012 743.191 205.012 746.149 207.204L746.745 206.4L747.34 205.596C744.898 203.788 743.695 201.388 743.695 198.3H742.695ZM746.745 206.4L746.149 207.204C749.081 209.375 753.069 210.4 757.995 210.4V209.4V208.4C753.32 208.4 749.808 207.425 747.34 205.596L746.745 206.4ZM757.995 209.4V210.4C762.753 210.4 767.03 209.312 770.798 207.114L770.295 206.25L769.791 205.386C766.359 207.388 762.436 208.4 757.995 208.4V209.4ZM770.295 206.25L770.788 207.12C774.695 204.902 777.496 201.62 779.176 197.314L778.245 196.95L777.313 196.586C775.793 200.48 773.294 203.398 769.801 205.38L770.295 206.25ZM778.245 196.95L777.282 197.22L780.432 208.47L781.395 208.2L782.357 207.93L779.207 196.68L778.245 196.95ZM781.395 208.2L780.461 207.842C778.751 212.307 775.669 215.781 771.16 218.275L771.645 219.15L772.129 220.025C777.02 217.319 780.438 213.493 782.328 208.558L781.395 208.2ZM771.645 219.15L771.152 218.279C766.745 220.77 761.079 222.05 754.095 222.05V223.05V224.05C761.31 224.05 767.344 222.73 772.137 220.021L771.645 219.15ZM821.058 222H820.058V223H821.058V222ZM821.058 110.7V109.7H820.058V110.7H821.058ZM839.808 110.7H840.808V109.7H839.808V110.7ZM839.808 222V223H840.808V222H839.808ZM821.058 222H822.058V110.7H821.058H820.058V222H821.058ZM821.058 110.7V111.7H839.808V110.7V109.7H821.058V110.7ZM839.808 110.7H838.808V222H839.808H840.808V110.7H839.808ZM839.808 222V221H821.058V222V223H839.808V222Z" fill="white" mask="url(#path-2-outside-1_4_59)"/>
<circle cx="167" cy="160" r="90" stroke="white" stroke-width="20"/>
<path d="M171 249.898L841 249.898" stroke="white" stroke-width="20"/>
<path d="M148.341 146.421L176.425 182.553L281.668 88.9999" stroke="#0D6EFD" stroke-width="20" stroke-linecap="round"/>
</svg>
